#!OML:ASF F:\VICON\USERDATA\INSTALL\rory3\rory3.ASF
:FULLY-SPECIFIED
:DEGREES
270
root 0.449783 17.9763 18.0817 -4.32235 -5.06947 -6.85208
lowerback 9.58396 1.76478 7.12951
upperback 1.33453 3.18909 2.60502
thorax -3.74242 1.49497 -1.6811
lowerneck -15.6914 -3.12731 -0.91447
upperneck 18.1904 -4.13903 0.258521
head 8.26025 -1.99526 -0.244278
rclavicle 1.10698e-014 7.55382e-015
rhumerus -28.1112 -6.47872 -82.1837
rradius 31.936
rwrist -1.20437
rhand -14.7628 19.2171
rfingers 7.12502
rthumb 11.3935 -10.4534
lclavicle 1.10698e-014 7.55382e-015
lhumerus -38.4774 -2.18775 84.7894
lradius 33.409
lwrist 2.71844
lhand -19.3625 33.5495
lfingers 7.12502
lthumb 6.95523 63.4152
rfemur -5.13482 4.80405 34.1471
rtibia 31.7275
rfoot -19.3687 -2.75595
rtoes -5.96456
lfemur -25.38 2.78361 -11.6464
ltibia 53.8347
lfoot -11.1352 4.32055
ltoes -26.1429
271
root 0.4568 17.9625 18.244 -4.11174 -5.30352 -7.07356
lowerback 9.27174 1.85791 7.45227
upperback 1.38661 3.31224 2.64795
thorax -3.48831 1.56161 -1.81416
lowerneck -15.7997 -3.12971 -1.21715
upperneck 18.2164 -4.1136 0.483491
head 8.30034 -1.98013 -0.119105
rclavicle -1.49213e-014 5.96354e-016
rhumerus -27.8219 -6.13363 -82.1865
rradius 32.3551
rwrist -1.59937
rhand -14.7945 19.64
rfingers 7.12502
rthumb 11.3629 -10.0321
lclavicle -1.49213e-014 5.96354e-016
lhumerus -38.4061 -1.9284 84.8435
lradius 33.1374
lwrist 2.81855
lhand -20.2926 31.7497
lfingers 7.12502
lthumb 6.05735 61.6431
rfemur -4.52796 4.74701 34.331
rtibia 31.3184
rfoot -19.6977 -2.55858
rtoes -5.99705
lfemur -25.5351 2.75136 -11.4482
ltibia 51.4612
lfoot -10.552 5.40401
ltoes -24.6342
272
root 0.45352 17.9528 18.4037 -3.98465 -5.56772 -7.27422
lowerback 8.95182 1.9343 7.5756
upperback 1.48269 3.38854 2.71082
thorax -3.1996 1.61043 -1.80842
lowerneck -15.7374 -3.03915 -1.26951
upperneck 18.1399 -3.99859 0.594131
head 8.26619 -1.91862 -0.058375
rclavicle -1.90958e-014 3.97569e-015
rhumerus -27.3344 -5.86793 -82.2671
rradius 32.4315
rwrist -2.08011
rhand -14.9104 21.1276
rfingers 7.12502
rthumb 11.2512 -8.55067
lclavicle -1.90958e-014 3.97569e-015
lhumerus -38.322 -1.54602 84.8076
lradius 32.8912
lwrist 2.90838
lhand -20.1309 30.6443
lfingers 7.12502
lthumb 6.21346 60.5331
rfemur -3.7907 4.92931 34.5845
rtibia 30.8255
rfoot -20.1282 -2.58281
rtoes -6.95452
lfemur -25.626 2.64653 -11.1759
ltibia 48.9561
lfoot -9.11118 5.81637
ltoes -19.1455
273
root 0.45111 17.9797 18.5581 -3.92878 -5.87787 -7.38642
lowerback 8.82793 1.99303 7.62903
upperback 1.57273 3.45302 2.73755
thorax -3.02929 1.64977 -1.80871
lowerneck -15.6591 -2.94581 -1.13878
upperneck 17.8683 -3.88354 0.519909
head 8.15562 -1.86464 -0.0871663
rclavicle 3.92475e-014 4.59193e-014
rhumerus -26.9087 -5.51792 -82.3985
rradius 32.5417
rwrist -2.31076
rhand -14.9493 21.933
rfingers 7.12502
rthumb 11.2136 -7.74733
lclavicle 3.92475e-014 4.59193e-014
lhumerus -38.3902 -1.23045 84.783
lradius 32.7991
lwrist 2.71777
lhand -20.7451 30.3793
lfingers 7.12502
lthumb 5.62048 60.2847
rfemur -2.93268 5.1102 34.723
rtibia 30.2164
rfoot -20.3566 -2.58475
rtoes -7.24332
lfemur -25.9633 2.55413 -11.0081
ltibia 46.471
lfoot -8.51882 6.31504
ltoes -15.0225
274
root 0.45879 17.9763 18.7099 -3.75843 -6.06846 -7.45004
lowerback 8.81188 2.05235 7.78269
upperback 1.53691 3.54468 2.68806
thorax -3.0374 1.69236 -1.95408
lowerneck -15.817 -2.96284 -1.03861
upperneck 17.84 -3.90492 0.402211
head 8.16963 -1.87933 -0.147375
rclavicle 4.03284e-014 1.59028e-015
rhumerus -26.7691 -5.21261 -82.4748
rradius 32.9828
rwrist -2.38569
rhand -15.0794 21.9854
rfingers 7.12502
rthumb 11.0881 -7.70171
lclavicle 4.03284e-014 1.59028e-015
lhumerus -38.6779 -1.10537 84.7513
lradius 32.972
lwrist 2.28603
lhand -21.416 31.8753
lfingers 7.12502
lthumb 4.97266 61.797
rfemur -2.24413 5.03805 34.7255
rtibia 29.6165
rfoot -20.4942 -2.4344
rtoes -7.49029
lfemur -25.8318 2.43869 -10.9334
ltibia 44.0052
lfoot -10.6285 7.0952
ltoes -12.8433
275
root 0.467966 17.9852 18.8657 -3.35818 -6.15957 -7.47296
lowerback 8.57013 2.12368 7.90632
upperback 1.388 3.63404 2.63853
thorax -3.0397 1.73198 -2.07467
lowerneck -15.8383 -2.99341 -0.98596
upperneck 17.937 -3.92957 0.250913
head 8.20161 -1.90236 -0.210463
rclavicle 2.41151e-014 3.97569e-016
rhumerus -26.5668 -4.95924 -82.4761
rradius 33.2924
rwrist -2.45849
rhand -15.2379 21.8029
rfingers 7.12502
rthumb 10.9353 -7.89234
lclavicle 2.41151e-014 3.97569e-016
lhumerus -38.8143 -0.730615 84.5833
lradius 33.1633
lwrist 2.79812
lhand -19.6132 34.6754
lfingers 7.12502
lthumb 6.71318 64.549
rfemur -1.75466 4.81895 34.614
rtibia 28.9744
rfoot -20.6716 -2.11345
rtoes -7.15259
lfemur -26.1532 2.00698 -10.8498
ltibia 41.4589
lfoot -11.0797 7.84783
ltoes -15.72
